<svg width="200" height="39" viewBox="0 0 200 39" fill="none" xmlns="http://www.w3.org/2000/svg">
    <path d="M17.306 12.5071C18.5658 12.777 19.4356 13.0769 19.9154 13.4369L19.0157 18.9856C18.3558 18.6257 17.636 18.3857 16.8261 18.2358C16.0163 18.0858 15.0266 17.9958 13.8268 17.9958C12.7171 17.9958 11.6673 18.2058 10.6776 18.6557C9.68778 19.1056 8.84798 19.8254 8.18813 20.8452C7.52828 21.8349 7.16836 23.1546 7.13837 24.7443C7.07838 26.4839 7.34832 27.9535 7.88819 29.1533C8.42807 30.353 9.1779 31.2228 10.1677 31.7927C11.1574 32.3625 12.2972 32.6625 13.5569 32.6625C14.6966 32.6625 15.8064 32.5725 16.8561 32.3625C17.9059 32.1526 18.7157 31.9126 19.2556 31.6127L20.3054 35.8417C19.4955 36.6216 18.3558 37.2514 16.8861 37.7313C15.4165 38.2112 13.8868 38.4511 12.2372 38.4511C9.5978 38.4511 7.34832 37.9113 5.51874 36.8015C3.68916 35.6918 2.27947 34.1921 1.37968 32.2426C0.44989 30.293 0 28.1035 0 25.6141C0 23.0347 0.479887 20.7252 1.43967 18.6857C2.39945 16.6461 3.86912 15.0565 5.84866 13.8867C7.82821 12.717 10.2277 12.1471 13.107 12.1471C14.6367 12.1172 16.0463 12.2671 17.306 12.5071Z"
          fill="#D2DDEB"/>
    <path d="M33.2624 0.119965V38.4212H26.064V0.119965H33.2624Z" fill="#D2DDEB"/>
    <path d="M62.3558 26.6638H46.8193C46.9693 28.8233 47.6291 30.443 48.8589 31.4927C50.0886 32.5425 51.7382 33.0824 53.8377 33.0824C54.8275 33.0824 56.0572 32.9624 57.4669 32.6924C58.8766 32.4225 59.9263 32.0926 60.5862 31.7327L61.7559 35.8117C60.8561 36.5616 59.4764 37.1614 57.6768 37.6713C55.8772 38.1812 53.9877 38.4211 52.0081 38.4211C49.3687 38.4211 47.1193 37.9113 45.2597 36.8615C43.4001 35.8117 41.9904 34.3121 41.0306 32.3025C40.0709 30.323 39.591 27.9535 39.591 25.1642C39.591 22.6447 40.1009 20.3953 41.0906 18.4157C42.0804 16.4362 43.5501 14.8765 45.4696 13.7668C47.3892 12.657 49.6687 12.0872 52.3081 12.0872C54.2276 12.0872 55.9372 12.4171 57.4669 13.0769C58.9965 13.7368 60.2263 14.7865 61.156 16.2562C62.0858 17.7259 62.5657 19.6154 62.5957 21.9249C62.6257 24.0544 62.5357 25.6441 62.3558 26.6638ZM55.9672 21.7749C55.9672 20.2753 55.6373 19.1655 55.0074 18.3857C54.3776 17.6059 53.3578 17.216 51.9481 17.216C50.5385 17.216 49.3987 17.6359 48.5589 18.4457C47.7191 19.2555 47.1792 20.6652 46.9393 22.6447H55.9372C55.9372 22.4648 55.9672 22.1649 55.9672 21.7749Z"
          fill="#D2DDEB"/>
    <path d="M84.9705 12.927C86.5002 13.4669 87.6399 14.4267 88.3898 15.7764C89.1396 17.1261 89.5295 19.0156 89.5295 21.4451V38.4512H85.3305C84.6406 38.4512 84.1307 38.3912 83.7708 38.3012C83.4109 38.2113 83.141 38.0013 82.931 37.6414C82.7211 37.3115 82.6311 36.7716 82.6311 36.0218V35.8418C81.8213 36.5916 80.8615 37.1915 79.6918 37.6714C78.522 38.1513 77.2323 38.4212 75.7927 38.4212C74.113 38.4212 72.6134 38.0613 71.3237 37.3115C70.034 36.5916 69.0142 35.5719 68.2944 34.2822C67.5745 32.9925 67.2146 31.5228 67.2146 29.8732C67.2146 28.3435 67.6045 27.0238 68.4143 25.9441C69.1941 24.8643 70.3339 23.9645 71.8035 23.3047C74.083 22.2849 77.5922 21.775 82.3312 21.775V20.3953C82.3312 19.5855 82.2112 18.9857 81.9412 18.5957C81.7013 18.2058 81.1914 17.9359 80.5016 17.8159C79.7817 17.6659 78.672 17.606 77.1123 17.606C76.3625 17.606 75.2528 17.7559 73.7531 18.0859C72.2534 18.4158 70.9638 18.7757 69.884 19.1956L68.2944 14.8766C68.8942 14.5167 69.794 14.0968 70.9637 13.6769C72.1335 13.257 73.4232 12.867 74.8029 12.5971C76.2125 12.2972 77.5322 12.1472 78.8519 12.1472C81.4014 12.1172 83.4409 12.3872 84.9705 12.927ZM80.6815 33.1124C81.5213 32.7825 82.0912 32.4826 82.3312 32.1226V25.8541C81.4614 25.8541 80.4716 25.9441 79.3618 26.154C78.2521 26.334 77.4423 26.5739 76.9024 26.8139C76.2125 27.0838 75.6727 27.4437 75.2528 27.8636C74.8329 28.3135 74.6229 28.9734 74.6229 29.8432C74.6229 31.0729 74.9528 32.0027 75.6127 32.6325C76.2725 33.2624 77.1423 33.5923 78.2221 33.5923C79.0319 33.5923 79.8117 33.4124 80.6815 33.1124Z"
          fill="#D2DDEB"/>
    <path d="M112.894 12.1472V19.5855C112.534 19.3156 112.144 19.1356 111.694 18.9856C111.245 18.8357 110.585 18.7757 109.745 18.7757C107.525 18.7757 105.576 19.6155 103.896 21.2951V38.4812H96.6979V12.2072H103.086L103.416 16.0463C103.806 15.3865 104.376 14.7866 105.126 14.1867C105.876 13.5869 106.776 13.107 107.765 12.7471C108.785 12.3572 109.805 12.1772 110.855 12.1772C111.844 12.1172 112.534 12.1172 112.894 12.1472Z"
          fill="#D2DDEB"/>
    <path d="M119.433 31.9427C120.243 32.2726 121.172 32.5725 122.222 32.8125C123.272 33.0524 124.322 33.1724 125.341 33.1724C126.781 33.1724 127.801 33.0224 128.491 32.6925C129.15 32.3626 129.48 31.8227 129.48 31.0429C129.48 30.323 129.031 29.6932 128.101 29.0933C127.201 28.5234 125.731 27.9236 123.782 27.2937C121.442 26.5439 119.763 25.5241 118.713 24.2644C117.663 22.9747 117.153 21.4151 117.153 19.5255C117.153 17.9359 117.603 16.6162 118.503 15.5064C119.403 14.3967 120.662 13.5569 122.252 12.987C123.842 12.4171 125.701 12.1472 127.771 12.1472C129.45 12.1472 130.95 12.2971 132.27 12.6271C133.589 12.957 134.549 13.2869 135.179 13.6468L134.399 19.1956C133.889 18.7157 133.05 18.2958 131.88 17.9359C130.71 17.5759 129.6 17.396 128.491 17.396C126.931 17.396 125.791 17.5459 125.101 17.8759C124.412 18.2058 124.052 18.7157 124.052 19.4355C124.052 19.9454 124.202 20.3953 124.532 20.7552C124.861 21.1151 125.371 21.4751 126.091 21.805C126.811 22.1349 127.831 22.5248 129.18 22.9747C130.98 23.5746 132.42 24.2344 133.469 24.9243C134.549 25.6441 135.329 26.4539 135.809 27.3537C136.289 28.2835 136.559 29.3632 136.559 30.623C136.559 33.2024 135.659 35.1519 133.829 36.4716C132 37.7913 129.48 38.4512 126.271 38.4512C125.071 38.4512 123.842 38.3612 122.612 38.1512C121.382 37.9413 120.273 37.7013 119.313 37.4014C118.353 37.1015 117.603 36.7716 117.123 36.4716L117.873 31.1029C118.083 31.3128 118.623 31.6127 119.433 31.9427Z"
          fill="#D2DDEB"/>
    <path d="M149.756 12.1472V38.4212H142.557V12.1472H149.756Z" fill="#D2DDEB"/>
    <path d="M158.634 12.1172L159.354 10.6475L161.723 5.81863H165.832V12.1472H172.94V17.126H165.832V27.4437C165.832 29.1533 165.922 30.413 166.102 31.1928C166.282 31.9727 166.582 32.4825 166.972 32.6925C167.362 32.9024 167.992 33.0224 168.801 33.0224C169.461 33.0224 170.181 32.9024 171.021 32.6925C171.861 32.4825 172.491 32.2126 172.88 31.9427L173.75 35.9318C173.03 36.5916 171.951 37.1615 170.511 37.6714C169.071 38.1812 167.512 38.4212 165.862 38.4212C164.092 38.4212 162.683 38.1512 161.633 37.6114C160.583 37.0715 159.803 36.2317 159.324 35.062C158.844 33.8922 158.604 32.3326 158.604 30.383V17.126H155.454V12.1472"
          fill="#D2DDEB"/>
    <path d="M199.754 26.6638H184.218C184.368 28.8233 185.028 30.443 186.257 31.4927C187.487 32.5425 189.137 33.0824 191.236 33.0824C192.226 33.0824 193.456 32.9624 194.865 32.6924C196.275 32.4225 197.325 32.0926 197.985 31.7327L199.154 35.8117C198.255 36.5616 196.875 37.1614 195.075 37.6713C193.276 38.1812 191.386 38.4211 189.407 38.4211C186.767 38.4211 184.518 37.9113 182.658 36.8615C180.799 35.8117 179.389 34.3121 178.429 32.3025C177.469 30.323 176.99 27.9535 176.99 25.1642C176.99 22.6447 177.499 20.3953 178.489 18.4157C179.479 16.4362 180.949 14.8765 182.868 13.7668C184.788 12.657 187.067 12.0872 189.707 12.0872C191.626 12.0872 193.336 12.4171 194.865 13.0769C196.395 13.7368 197.625 14.7865 198.555 16.2562C199.484 17.7259 199.964 19.6154 199.994 21.9249C200.024 24.0544 199.934 25.6441 199.754 26.6638ZM193.336 21.7749C193.336 20.2753 193.006 19.1655 192.376 18.3857C191.746 17.6059 190.726 17.216 189.317 17.216C187.907 17.216 186.767 17.6359 185.927 18.4457C185.088 19.2555 184.548 20.6652 184.308 22.6447H193.306C193.336 22.4648 193.336 22.1649 193.336 21.7749Z"
          fill="#D2DDEB"/>
    <path d="M145.257 8.27811C147.543 8.27811 149.396 6.42499 149.396 4.13905C149.396 1.85312 147.543 0 145.257 0C142.971 0 141.118 1.85312 141.118 4.13905C141.118 6.42499 142.971 8.27811 145.257 8.27811Z" fill="#D2DDEB"/>
</svg>