<?xml version="1.0" standalone="no"?>
<!DOCTYPE svg PUBLIC "-//W3C//DTD SVG 20010904//EN"
 "http://www.w3.org/TR/2001/REC-SVG-20010904/DTD/svg10.dtd">
<svg version="1.0" xmlns="http://www.w3.org/2000/svg"
 width="500.000000pt" height="500.000000pt" viewBox="0 0 500.000000 500.000000"
 preserveAspectRatio="xMidYMid meet">
<metadata>
Created by potrace 1.11, written by Peter Selinger 2001-2013
</metadata>
<g transform="translate(0.000000,500.000000) scale(0.100000,-0.100000)"
fill="#000000" stroke="none">
<path d="M1805 3773 c-335 -41 -568 -148 -808 -373 -180 -168 -322 -441 -368
-710 -18 -103 -15 -325 5 -430 66 -339 268 -643 551 -831 210 -139 398 -203
666 -225 171 -13 424 35 604 117 64 28 204 112 232 139 12 11 25 20 29 20 14
0 168 150 210 205 88 114 170 253 194 330 7 22 16 45 20 50 30 43 65 227 75
392 9 154 16 193 43 251 15 31 27 59 27 62 0 3 17 31 38 62 106 158 279 254
477 265 91 5 146 -1 235 -27 58 -17 86 -17 96 0 12 24 92 211 170 400 13 30
26 57 30 60 10 8 40 120 34 130 -3 5 -22 14 -43 21 -20 6 -41 15 -47 19 -5 4
-66 22 -135 40 -117 30 -136 32 -300 33 -134 0 -190 -4 -240 -17 -36 -10 -83
-22 -105 -27 -100 -26 -355 -141 -355 -160 0 -5 -5 -9 -11 -9 -31 0 -230 -174
-298 -260 -62 -79 -112 -153 -145 -214 -84 -153 -146 -385 -146 -540 0 -147
-49 -332 -104 -392 -6 -7 -29 -35 -51 -62 -39 -48 -143 -132 -163 -132 -6 0
-12 -4 -14 -8 -1 -5 -39 -22 -83 -37 -111 -39 -259 -46 -366 -17 -107 30 -203
86 -284 167 -118 118 -175 256 -175 424 0 53 6 119 14 148 73 273 317 464 592
463 83 -1 181 -18 249 -43 46 -18 51 -16 60 20 3 14 19 54 34 87 16 34 48 106
71 161 24 55 61 141 83 190 22 50 40 103 41 120 1 27 -4 31 -65 56 -161 65
-415 102 -574 82z m336 -108 c101 -18 186 -42 194 -55 5 -8 -146 -381 -174
-430 -10 -17 -35 -17 -131 0 -36 6 -108 9 -160 6 -260 -13 -484 -165 -600
-405 -69 -142 -83 -339 -36 -486 53 -164 149 -293 289 -385 239 -158 538 -160
775 -6 34 22 62 44 62 48 0 4 7 8 15 8 7 0 18 6 22 14 4 8 24 32 44 53 20 21
49 59 65 83 16 25 32 47 36 50 7 6 30 65 57 151 11 33 21 107 25 180 10 171
22 244 62 366 38 114 76 195 132 282 48 72 38 60 127 162 67 76 189 173 285
228 285 161 640 200 969 105 l54 -15 -6 -43 c-4 -24 -23 -79 -42 -122 -53
-114 -61 -132 -87 -199 -40 -102 -38 -100 -94 -86 -75 19 -221 25 -303 12 -82
-13 -207 -64 -280 -113 -41 -29 -157 -139 -188 -181 -22 -28 -70 -130 -93
-197 -16 -47 -25 -103 -31 -204 -4 -77 -13 -164 -20 -195 -22 -113 -41 -185
-56 -220 -26 -58 -97 -206 -103 -211 -3 -3 -31 -40 -62 -82 -108 -144 -280
-292 -408 -350 -161 -73 -183 -80 -358 -119 -82 -18 -342 -15 -437 5 -503 106
-873 479 -961 969 -19 106 -19 321 0 419 100 523 526 916 1061 978 89 11 248
4 356 -15z"/>
</g>
</svg>
